<svg width="50" height="50" viewBox="0 0 50 50" fill="none" xmlns="http://www.w3.org/2000/svg">
<g clipPath="url(#clip0_384_37)">
<path d="M25 50C38.8071 50 50 38.8071 50 25C50 11.1929 38.8071 0 25 0C11.1929 0 0 11.1929 0 25C0 38.8071 11.1929 50 25 50Z" fill="url(#paint0_linear_384_37)"/>
<path d="M25 49.1895C38.3595 49.1895 49.1895 38.3595 49.1895 25C49.1895 11.6405 38.3595 0.810425 25 0.810425C11.6405 0.810425 0.810425 11.6405 0.810425 25C0.810425 38.3595 11.6405 49.1895 25 49.1895Z" fill="url(#paint1_linear_384_37)"/>
<path d="M25 46.8156C37.0485 46.8156 46.8156 37.0484 46.8156 25C46.8156 12.9515 37.0485 3.18433 25 3.18433C12.9516 3.18433 3.18439 12.9515 3.18439 25C3.18439 37.0484 12.9516 46.8156 25 46.8156Z" fill="url(#paint2_linear_384_37)"/>
<path d="M25 46.8156C37.0485 46.8156 46.8156 37.0484 46.8156 25C46.8156 12.9515 37.0485 3.18433 25 3.18433C12.9516 3.18433 3.18439 12.9515 3.18439 25C3.18439 37.0484 12.9516 46.8156 25 46.8156Z" fill="url(#paint3_radial_384_37)"/>
<path d="M31.1658 25.9426L38.1034 25L31.1658 24.0574C29.6701 23.8542 28.949 22.1135 29.863 20.9121L32.328 17.6719L29.0878 20.1369C27.8864 21.0509 26.1457 20.3298 25.9425 18.8341L24.9999 11.8965L24.0573 18.8341C23.8541 20.3298 22.1134 21.0509 20.912 20.1369L17.6718 17.6719L20.1368 20.9121C21.0508 22.1135 20.3297 23.8542 18.834 24.0574L11.8964 25L18.834 25.9426C20.3297 26.1458 21.0508 27.8865 20.1368 29.0879L17.6718 32.3281L20.912 29.8631C22.1134 28.9491 23.8541 29.6702 24.0573 31.1659L24.9999 38.1035L25.9425 31.1659C26.1457 29.6702 27.8864 28.9491 29.0878 29.8631L32.328 32.3281L29.863 29.0879C28.9491 27.8865 29.6701 26.1458 31.1658 25.9426Z" fill="#0071E2"/>
<path d="M46.8111 25.3709L35.9276 14.4874C35.8179 14.1389 35.398 13.9061 35.0148 14.1373L21.9948 21.9948L14.1373 35.0146C13.9499 35.3252 14.067 35.6601 14.3035 35.8345C14.3056 35.836 20.751 42.2815 25.2815 46.8122C37.0765 46.6627 46.6144 37.1544 46.8111 25.3709Z" fill="url(#paint4_linear_384_37)"/>
<path d="M35.0147 14.1373L21.9948 21.9948L25 24.9999L28.0052 28.0051L35.8627 14.9852C36.1958 14.4332 35.5667 13.8041 35.0147 14.1373Z" fill="url(#paint5_linear_384_37)"/>
<path d="M35.7706 14.2295L25 25L28.0051 28.0051L35.8626 14.9852C36.0293 14.7094 35.9552 14.4141 35.7706 14.2295Z" fill="url(#paint6_linear_384_37)"/>
<path d="M14.1373 35.0147L21.9948 21.9948L25 25L28.0052 28.0052L14.9854 35.8627C14.4333 36.1958 13.8042 35.5667 14.1373 35.0147Z" fill="url(#paint7_linear_384_37)"/>
<path d="M14.2295 35.7706L25 25L28.0051 28.0051L14.9852 35.8626C14.7094 36.0293 14.4141 35.9552 14.2295 35.7706Z" fill="url(#paint8_linear_384_37)"/>
<path d="M26.5599 23.5605C26.5406 23.5397 26.5191 23.5211 26.4991 23.501L25 25L28.0051 28.0051L29.1339 26.1346L26.5599 23.5605Z" fill="url(#paint9_linear_384_37)"/>
<path d="M23.501 26.4991C23.5211 26.5192 23.5397 26.5407 23.5605 26.5599L26.1346 29.1339L28.0051 28.0051L25 25L23.501 26.4991Z" fill="url(#paint10_linear_384_37)"/>
<path d="M25 27.125C26.1736 27.125 27.125 26.1736 27.125 25C27.125 23.8264 26.1736 22.875 25 22.875C23.8264 22.875 22.875 23.8264 22.875 25C22.875 26.1736 23.8264 27.125 25 27.125Z" fill="url(#paint11_linear_384_37)"/>
<path d="M25.0779 4.96838H24.9222C24.2917 4.96838 23.7805 5.47952 23.7805 6.11008V7.5303C23.7805 8.16086 24.2917 8.672 24.9222 8.672H25.0779C25.7084 8.672 26.2196 8.16086 26.2196 7.5303V6.11008C26.2195 5.47961 25.7084 4.96838 25.0779 4.96838Z" fill="white"/>
<path d="M25.0779 41.328H24.9222C24.2917 41.328 23.7805 41.8391 23.7805 42.4697V43.89C23.7805 44.5206 24.2917 45.0317 24.9222 45.0317H25.0779C25.7084 45.0317 26.2196 44.5206 26.2196 43.89V42.4697C26.2195 41.8391 25.7084 41.328 25.0779 41.328Z" fill="white"/>
<path d="M43.89 23.7806H42.4696C41.8391 23.7806 41.3279 24.2918 41.3279 24.9223V25.078C41.3279 25.7086 41.8391 26.2197 42.4696 26.2197H43.89C44.5205 26.2197 45.0317 25.7086 45.0317 25.078V24.9223C45.0317 24.2918 44.5204 23.7806 43.89 23.7806Z" fill="white"/>
<path d="M8.6721 25.0779V24.9222C8.6721 24.2917 8.16096 23.7805 7.5304 23.7805H6.11008C5.47952 23.7805 4.96838 24.2917 4.96838 24.9222V25.0779C4.96838 25.7084 5.47952 26.2196 6.11008 26.2196H7.5304C8.16096 26.2195 8.6721 25.7084 8.6721 25.0779Z" fill="white"/>
<path d="M9.11934 17.9085L6.86914 17.0515C6.67549 16.9779 6.46074 17.0755 6.38516 17.2686C6.31153 17.4622 6.4086 17.6787 6.60215 17.7526L8.85235 18.6096C9.04199 18.6817 9.25391 18.5898 9.33164 18.404C9.3332 18.4003 9.33477 18.3964 9.33623 18.3926C9.41006 18.1988 9.31299 17.9823 9.11934 17.9085Z" fill="white"/>
<path d="M43.3976 32.2476L41.1474 31.3907C40.9537 31.317 40.739 31.4146 40.6634 31.6076C40.5898 31.8012 40.6869 32.0179 40.8804 32.0916L43.1306 32.9486C43.3203 33.0207 43.5322 32.9288 43.6099 32.743C43.6115 32.7393 43.613 32.7354 43.6145 32.7316C43.6884 32.538 43.5912 32.3214 43.3976 32.2476Z" fill="white"/>
<path d="M32.7316 6.38534C32.538 6.31171 32.3215 6.40878 32.2476 6.60233L31.3906 8.85253C31.3185 9.04218 31.4104 9.25409 31.5962 9.33183C31.5999 9.33339 31.6038 9.33495 31.6076 9.33642C31.8012 9.41005 32.0177 9.31298 32.0916 9.11942L32.9486 6.86923C33.0222 6.67558 32.9247 6.46073 32.7316 6.38534Z" fill="white"/>
<path d="M18.3923 40.6635C18.1988 40.5899 17.9821 40.687 17.9083 40.8805L17.0514 43.1307C16.9792 43.3204 17.0711 43.5323 17.257 43.61C17.2607 43.6116 17.2646 43.6132 17.2684 43.6146C17.462 43.6882 17.6787 43.5912 17.7524 43.3976L18.6093 41.1474C18.683 40.9538 18.5855 40.7389 18.3923 40.6635Z" fill="white"/>
<path d="M12.9126 36.9543C12.7619 36.8123 12.5246 36.8194 12.3825 36.9701L10.7314 38.7228C10.5894 38.8736 10.5975 39.1094 10.7472 39.2528C10.8979 39.3948 11.1352 39.3877 11.2773 39.237L12.9284 37.4844C13.0676 37.3365 13.0635 37.1058 12.9215 36.9629C12.9187 36.96 12.9156 36.9571 12.9126 36.9543Z" fill="white"/>
<path d="M39.2529 10.7472C39.1022 10.6052 38.8649 10.6123 38.7228 10.763L37.0716 12.5156C36.9296 12.6665 36.9377 12.9022 37.0875 13.0457C37.2381 13.1877 37.4754 13.1806 37.6175 13.0299L39.2687 11.2772C39.4079 11.1294 39.4038 10.8986 39.2618 10.7557C39.2588 10.753 39.2558 10.7501 39.2529 10.7472Z" fill="white"/>
<path d="M11.2773 10.7314C11.1264 10.5894 10.8907 10.5975 10.7472 10.7472C10.6052 10.8979 10.6124 11.1352 10.763 11.2773L12.5157 12.9285C12.6635 13.0677 12.8943 13.0635 13.0372 12.9216C13.0401 12.9186 13.043 12.9157 13.0458 12.9127C13.1878 12.762 13.1807 12.5247 13.03 12.3826L11.2773 10.7314Z" fill="white"/>
<path d="M37.4844 37.0715C37.3335 36.9295 37.0978 36.9376 36.9543 37.0873C36.8123 37.238 36.8194 37.4753 36.9701 37.6174L38.7228 39.2686C38.8706 39.4077 39.1014 39.4036 39.2442 39.2616C39.2472 39.2587 39.2501 39.2558 39.2529 39.2528C39.3949 39.1021 39.3878 38.8648 39.2371 38.7227L37.4844 37.0715Z" fill="white"/>
<path d="M9.25185 31.4034C9.16709 31.2144 8.94521 31.13 8.75625 31.2146L6.55918 32.1999C6.37021 32.2847 6.2873 32.5057 6.37041 32.6955C6.45508 32.8845 6.67695 32.9689 6.86601 32.8843L9.06308 31.899C9.24834 31.8159 9.3331 31.6012 9.25664 31.4147C9.25517 31.411 9.25351 31.4072 9.25185 31.4034Z" fill="white"/>
<path d="M41.2438 18.7854L43.4409 17.8001C43.6261 17.717 43.7109 17.5023 43.6344 17.3159C43.6329 17.3122 43.6312 17.3082 43.6295 17.3045C43.5448 17.1156 43.3229 17.0311 43.1339 17.1158L40.9369 18.101C40.7479 18.1858 40.665 18.4068 40.7481 18.5966C40.8329 18.7856 41.0547 18.8701 41.2438 18.7854Z" fill="white"/>
<path d="M17.8001 6.55912C17.7154 6.37015 17.4944 6.28724 17.3045 6.37035C17.1156 6.45511 17.0311 6.67699 17.1158 6.86595L18.101 9.06302C18.1841 9.24828 18.3989 9.33304 18.5853 9.25658C18.589 9.25501 18.5929 9.25335 18.5966 9.25169C18.7856 9.16703 18.8701 8.94515 18.7854 8.75609L17.8001 6.55912Z" fill="white"/>
<path d="M31.899 40.9368C31.8143 40.7478 31.5933 40.6649 31.4034 40.748C31.2144 40.8328 31.13 41.0547 31.2146 41.2436L32.1999 43.4407C32.283 43.626 32.4977 43.7107 32.6842 43.6343C32.6879 43.6327 32.6918 43.631 32.6955 43.6294C32.8845 43.5446 32.9689 43.3227 32.8843 43.1338L31.899 40.9368Z" fill="white"/>
</g>
<defs>
<linearGradient id="paint0_linear_384_37" x1="25.0008" y1="61.02" x2="25.0008" y2="-2.36719" gradientUnits="userSpaceOnUse">
<stop stop-color="white"/>
<stop offset="1" stop-color="#E8EFEE"/>
</linearGradient>
<linearGradient id="paint1_linear_384_37" x1="25.0008" y1="-9.85515" x2="25.0008" y2="51.478" gradientUnits="userSpaceOnUse">
<stop stop-color="white"/>
<stop offset="1" stop-color="#E8EFEE"/>
</linearGradient>
<linearGradient id="paint2_linear_384_37" x1="13.1515" y1="13.1497" x2="35.699" y2="35.6973" gradientUnits="userSpaceOnUse">
<stop stop-color="#00A6F9"/>
<stop offset="1" stop-color="#0071E2"/>
</linearGradient>
<radialGradient id="paint3_radial_384_37" cx="0" cy="0" r="1" gradientUnits="userSpaceOnUse" gradientTransform="translate(25.5946 25.6584) scale(23.5539)">
<stop offset="0.0001" stop-color="#00A6F9" stop-opacity="0"/>
<stop offset="0.454" stop-color="#00A4F9" stop-opacity="0.453"/>
<stop offset="0.617" stop-color="#009DF7" stop-opacity="0.617"/>
<stop offset="0.734" stop-color="#0092F4" stop-opacity="0.733"/>
<stop offset="0.828" stop-color="#0081F0" stop-opacity="0.827"/>
<stop offset="0.908" stop-color="#006BEB" stop-opacity="0.908"/>
<stop offset="0.978" stop-color="#0050E4" stop-opacity="0.978"/>
<stop offset="1" stop-color="#0046E2"/>
</radialGradient>
<linearGradient id="paint4_linear_384_37" x1="39.2098" y1="39.2077" x2="20.3488" y2="20.3477" gradientUnits="userSpaceOnUse">
<stop offset="0.0001" stop-color="#008BF2" stop-opacity="0"/>
<stop offset="1" stop-color="#0046E2"/>
</linearGradient>
<linearGradient id="paint5_linear_384_37" x1="28.5529" y1="17.7802" x2="32.5947" y2="21.822" gradientUnits="userSpaceOnUse">
<stop stop-color="#D63305"/>
<stop offset="0.366" stop-color="#CF3004"/>
<stop offset="0.899" stop-color="#BC2602"/>
<stop offset="1" stop-color="#B72401"/>
</linearGradient>
<linearGradient id="paint6_linear_384_37" x1="30.0737" y1="19.3011" x2="33.1613" y2="22.3887" gradientUnits="userSpaceOnUse">
<stop stop-color="#960000"/>
<stop offset="0.331" stop-color="#9C0700" stop-opacity="0.669"/>
<stop offset="0.812" stop-color="#AE1A01" stop-opacity="0.188"/>
<stop offset="1" stop-color="#B72401" stop-opacity="0"/>
</linearGradient>
<linearGradient id="paint7_linear_384_37" x1="17.2402" y1="28.0095" x2="24.1425" y2="34.9118" gradientUnits="userSpaceOnUse">
<stop stop-color="white"/>
<stop offset="1" stop-color="#E8EFEE"/>
</linearGradient>
<linearGradient id="paint8_linear_384_37" x1="23.3444" y1="34.114" x2="16.6369" y2="27.4055" gradientUnits="userSpaceOnUse">
<stop stop-color="#C2CECE" stop-opacity="0"/>
<stop offset="0.179" stop-color="#AFBCBC" stop-opacity="0.179"/>
<stop offset="1" stop-color="#5B6A6A"/>
</linearGradient>
<linearGradient id="paint9_linear_384_37" x1="26.4799" y1="24.9783" x2="28.5633" y2="27.0617" gradientUnits="userSpaceOnUse">
<stop stop-color="#960000"/>
<stop offset="0.331" stop-color="#9C0700" stop-opacity="0.669"/>
<stop offset="0.812" stop-color="#AE1A01" stop-opacity="0.188"/>
<stop offset="1" stop-color="#B72401" stop-opacity="0"/>
</linearGradient>
<linearGradient id="paint10_linear_384_37" x1="27.9801" y1="29.4784" x2="21.2726" y2="22.7709" gradientUnits="userSpaceOnUse">
<stop stop-color="#C2CECE" stop-opacity="0"/>
<stop offset="0.179" stop-color="#AFBCBC" stop-opacity="0.179"/>
<stop offset="1" stop-color="#5B6A6A"/>
</linearGradient>
<linearGradient id="paint11_linear_384_37" x1="25.0008" y1="24.4574" x2="25.0008" y2="26.6262" gradientUnits="userSpaceOnUse">
<stop stop-color="#C2CECE"/>
<stop offset="1" stop-color="#97AAAA"/>
</linearGradient>
<clipPath id="clip0_384_37">
<rect width="50" height="50" fill="white"/>
</clipPath>
</defs>
</svg>
