<svg width="26" height="37" viewBox="0 0 26 37" fill="none" xmlns="http://www.w3.org/2000/svg">
<path d="M13.1755 0.211151C13.1192 0.144964 13.0492 0.0918011 12.9703 0.0553421C12.8915 0.0188832 12.8056 0 12.7188 0C12.6319 0 12.546 0.0188832 12.4672 0.0553421C12.3883 0.0918011 12.3183 0.144964 12.262 0.211151C11.762 0.855182 0 16.0714 0 24.2692C0 27.6425 1.34001 30.8775 3.72524 33.2628C6.11046 35.648 9.34553 36.988 12.7188 36.988C16.092 36.988 19.327 35.648 21.7123 33.2628C24.0975 30.8775 25.4375 27.6425 25.4375 24.2692C25.4375 16.0714 13.6755 0.855182 13.1755 0.211151Z" fill="#B8EBFF"/>
<path d="M23.58 17.1149C23.1079 17.4418 22.5426 17.6071 21.9688 17.5861C21.2429 17.5995 20.5382 17.3413 19.9927 16.8623C19.2436 16.2534 18.3077 15.9211 17.3423 15.9211C16.377 15.9211 15.441 16.2534 14.6919 16.8623C14.1402 17.3297 13.4406 17.5862 12.7176 17.5862C11.9946 17.5862 11.295 17.3297 10.7433 16.8623C9.99415 16.2534 9.05823 15.9211 8.09288 15.9211C7.12753 15.9211 6.19161 16.2534 5.44247 16.8623C4.89784 17.3412 4.1939 17.5994 3.46875 17.5861C2.89557 17.6074 2.3309 17.4425 1.85925 17.1161C0.740578 19.7147 0 22.2128 0 24.2692C0 27.6424 1.34001 30.8775 3.72524 33.2627C6.11046 35.648 9.34553 36.988 12.7188 36.988C16.092 36.988 19.327 35.648 21.7123 33.2627C24.0975 30.8775 25.4375 27.6424 25.4375 24.2692C25.4375 22.2128 24.6969 19.7142 23.58 17.1149Z" fill="#3A74C1"/>
<path d="M17.1744 21.548C17.066 21.4396 16.9189 21.3787 16.7656 21.3787C16.6124 21.3787 16.4653 21.4396 16.3569 21.548L8.26316 29.6417C8.20795 29.6951 8.16391 29.7589 8.13361 29.8294C8.10331 29.8999 8.08736 29.9758 8.08669 30.0526C8.08602 30.1293 8.10065 30.2054 8.12972 30.2765C8.15879 30.3475 8.20172 30.4121 8.256 30.4664C8.31028 30.5207 8.37483 30.5636 8.44588 30.5927C8.51693 30.6217 8.59306 30.6363 8.66982 30.6357C8.74658 30.635 8.82244 30.6191 8.89298 30.5888C8.96351 30.5585 9.0273 30.5144 9.08063 30.4592L17.1744 22.3655C17.2828 22.257 17.3437 22.11 17.3437 21.9567C17.3437 21.8034 17.2828 21.6564 17.1744 21.548Z" fill="white"/>
<path d="M9.82813 25.4255C9.37076 25.4255 8.92366 25.2899 8.54337 25.0358C8.16308 24.7816 7.86668 24.4205 7.69165 23.9979C7.51663 23.5754 7.47083 23.1104 7.56006 22.6618C7.64929 22.2132 7.86953 21.8012 8.19294 21.4778C8.51635 21.1544 8.9284 20.9341 9.37698 20.8449C9.82556 20.7557 10.2905 20.8015 10.7131 20.9765C11.1356 21.1515 11.4968 21.4479 11.7509 21.8282C12.005 22.2085 12.1406 22.6556 12.1406 23.113C12.1406 23.7263 11.897 24.3145 11.4633 24.7482C11.0296 25.1818 10.4414 25.4255 9.82813 25.4255ZM9.82813 21.9567C9.59944 21.9567 9.37589 22.0245 9.18575 22.1516C8.9956 22.2786 8.8474 22.4592 8.75989 22.6705C8.67238 22.8818 8.64948 23.1143 8.69409 23.3386C8.73871 23.5628 8.84883 23.7689 9.01053 23.9306C9.17224 24.0923 9.37826 24.2024 9.60255 24.247C9.82684 24.2916 10.0593 24.2687 10.2706 24.1812C10.4819 24.0937 10.6625 23.9455 10.7895 23.7554C10.9166 23.5652 10.9844 23.3417 10.9844 23.113C10.9844 22.8063 10.8626 22.5122 10.6457 22.2954C10.4289 22.0785 10.1348 21.9567 9.82813 21.9567Z" fill="white"/>
<path d="M15.6094 31.2067C15.152 31.2067 14.7049 31.0711 14.3246 30.817C13.9443 30.5629 13.6479 30.2017 13.4729 29.7792C13.2979 29.3566 13.2521 28.8917 13.3413 28.4431C13.4305 27.9945 13.6508 27.5825 13.9742 27.259C14.2976 26.9356 14.7096 26.7154 15.1582 26.6262C15.6068 26.5369 16.0718 26.5827 16.4943 26.7578C16.9169 26.9328 17.278 27.2292 17.5321 27.6095C17.7863 27.9898 17.9219 28.4369 17.9219 28.8942C17.9219 29.5075 17.6782 30.0957 17.2446 30.5294C16.8109 30.9631 16.2227 31.2067 15.6094 31.2067ZM15.6094 27.738C15.3807 27.738 15.1571 27.8058 14.967 27.9328C14.7769 28.0599 14.6287 28.2405 14.5411 28.4518C14.4536 28.663 14.4307 28.8955 14.4753 29.1198C14.52 29.3441 14.6301 29.5501 14.7918 29.7118C14.9535 29.8735 15.1595 29.9836 15.3838 30.0283C15.6081 30.0729 15.8406 30.05 16.0519 29.9625C16.2631 29.8749 16.4437 29.7268 16.5708 29.5366C16.6978 29.3465 16.7656 29.1229 16.7656 28.8942C16.7656 28.5876 16.6438 28.2935 16.427 28.0766C16.2101 27.8598 15.916 27.738 15.6094 27.738Z" fill="white"/>
</svg>
