<svg width="116" height="116" viewBox="0 0 116 116" fill="none" xmlns="http://www.w3.org/2000/svg">
<path d="M11.974 42.626C9.25915 42.6263 6.62919 41.6796 4.5374 39.949C2.4456 38.2185 1.023 35.8124 0.514761 33.1455C0.00652522 30.4787 0.444493 27.718 1.75318 25.3394C3.06188 22.9608 5.15931 21.1132 7.68402 20.115C7.01777 18.2328 6.73769 16.2356 6.8605 14.2428C6.98331 12.2499 7.5065 10.3022 8.39882 8.51609C9.29114 6.72994 10.5343 5.14195 12.054 3.84695C13.5737 2.55196 15.3388 1.57653 17.2439 0.978919C19.149 0.38131 21.1551 0.17378 23.1422 0.368725C25.1292 0.56367 27.0567 1.15709 28.8093 2.11355C30.562 3.07 32.1039 4.36987 33.3429 5.93551C34.582 7.50116 35.4928 9.30047 36.021 11.226C38.1748 10.88 40.3769 10.9838 42.4886 11.5307C44.6003 12.0777 46.5759 13.056 48.2909 14.404C50.006 15.7521 51.4233 17.4406 52.4536 19.3634C53.4839 21.2861 54.1049 23.4014 54.2775 25.576C54.45 27.7505 54.1705 29.9373 53.4563 31.9985C52.7422 34.0597 51.609 35.9507 50.1281 37.5523C48.6471 39.154 46.8506 40.4317 44.8516 41.3049C42.8526 42.1781 40.6944 42.6279 38.513 42.626H11.974Z" fill="#C9E2F4"/>
<path d="M104.025 42.626C106.74 42.6266 109.37 41.68 111.462 39.9495C113.554 38.219 114.977 35.813 115.485 33.146C115.994 30.4791 115.556 27.7183 114.247 25.3396C112.938 22.9609 110.841 21.1132 108.316 20.115C108.982 18.2328 109.262 16.2356 109.14 14.2428C109.017 12.2499 108.494 10.3022 107.601 8.51609C106.709 6.72994 105.466 5.14195 103.946 3.84695C102.426 2.55196 100.661 1.57653 98.7561 0.978919C96.851 0.38131 94.845 0.17378 92.8579 0.368725C90.8708 0.56367 88.9434 1.15709 87.1908 2.11355C85.4381 3.07 83.8962 4.36987 82.6571 5.93551C81.4181 7.50116 80.5072 9.30047 79.979 11.226C77.8253 10.88 75.6232 10.9838 73.5114 11.5307C71.3997 12.0777 69.4242 13.056 67.7091 14.404C65.9941 15.7521 64.5768 17.4406 63.5465 19.3634C62.5162 21.2861 61.8952 23.4014 61.7226 25.576C61.55 27.7505 61.8296 29.9373 62.5438 31.9985C63.2579 34.0597 64.3911 35.9507 65.872 37.5523C67.3529 39.154 69.1495 40.4317 71.1485 41.3049C73.1475 42.1781 75.3056 42.6279 77.487 42.626H104.025Z" fill="#C9E2F4"/>
<path d="M97.1 88.961C101.725 88.9604 106.184 87.2355 109.605 84.1233C113.026 81.0111 115.165 76.7353 115.602 72.1309C116.039 67.5266 114.745 62.9246 111.97 59.2239C109.196 55.5231 105.142 52.9896 100.6 52.118C100.826 50.0585 100.615 47.9743 99.9813 46.0018C99.3473 44.0292 98.3044 42.2126 96.9206 40.6704C95.5368 39.1283 93.8433 37.8954 91.9507 37.0522C90.0581 36.209 88.0089 35.7745 85.937 35.777C83.6591 35.7785 81.4128 36.3102 79.376 37.33C77.3615 33.3947 74.2997 30.0918 70.5279 27.7854C66.7562 25.479 62.421 24.2585 58 24.2585C53.579 24.2585 49.2438 25.479 45.4721 27.7854C41.7003 30.0918 38.6385 33.3947 36.624 37.33C34.3763 36.2072 31.8787 35.6778 29.3688 35.7923C26.8588 35.9068 24.4198 36.6613 22.2836 37.984C20.1474 39.3068 18.385 41.1539 17.1639 43.3498C15.9428 45.5457 15.3036 48.0174 15.307 50.53C15.308 51.0595 15.3374 51.5886 15.395 52.115C10.8528 52.9866 6.79867 55.5201 4.02454 59.2209C1.25041 62.9216 -0.0444178 67.5236 0.392982 72.1279C0.830383 76.7322 2.96859 81.0081 6.38993 84.1203C9.81126 87.2325 14.2699 88.9574 18.895 88.958L97.1 88.961Z" fill="#E0F3FC"/>
<path d="M76.23 97.463C76.23 79.846 58 62.229 58 62.229C58 62.229 39.77 79.846 39.77 97.463C39.77 102.298 41.6907 106.935 45.1095 110.354C48.5283 113.772 53.1651 115.693 58 115.693C62.8349 115.693 67.4718 113.772 70.8906 110.354C74.3094 106.935 76.23 102.298 76.23 97.463Z" fill="#355EC7"/>
</svg>
