<svg width="40" height="40" viewBox="0 0 40 40" fill="none" xmlns="http://www.w3.org/2000/svg">
<path d="M35.2383 14.5574C35.2384 14.5411 35.2395 14.5254 35.2395 14.5091C35.2395 10.6833 32.1381 7.58208 28.3125 7.58208C28.0275 7.58208 27.7472 7.60129 27.4711 7.63473C26.3706 4.37192 23.2877 2.02161 19.6536 2.02161C15.0969 2.02161 11.403 5.71551 11.403 10.2722C11.403 10.406 11.4067 10.5389 11.4131 10.6711C10.7917 10.5211 10.1434 10.4396 9.47578 10.4396C4.93281 10.4396 1.25 14.1224 1.25 18.6654C1.25 23.2083 4.93281 26.8913 9.47594 26.8913H32.2116C35.8227 26.8913 38.75 23.9639 38.75 20.3529C38.75 17.8341 37.3252 15.6496 35.2383 14.5574Z" fill="#E0EBFC"/>
<path d="M32.2116 27.2037H9.47594C4.76781 27.2037 0.9375 23.3734 0.9375 18.6653C0.9375 13.9571 4.76781 10.1268 9.47594 10.1268C10.0153 10.1268 10.5567 10.1787 11.0906 10.2814C11.0906 10.2782 11.0906 10.2751 11.0906 10.272C11.0906 5.55027 14.932 1.70886 19.6537 1.70886C23.2475 1.70886 26.443 3.94464 27.6837 7.29808C27.8983 7.27902 28.1089 7.26933 28.3127 7.26933C32.2584 7.26933 35.4772 10.4425 35.5509 14.3709C37.7219 15.5839 39.0625 17.8585 39.0625 20.3528C39.0625 24.1304 35.9892 27.2037 32.2116 27.2037ZM9.47594 10.752C5.11234 10.752 1.5625 14.3018 1.5625 18.6653C1.5625 23.0287 5.11234 26.5787 9.47594 26.5787H32.2116C35.6445 26.5787 38.4375 23.7857 38.4375 20.3528C38.4375 18.0284 37.1561 15.9139 35.0934 14.8345C34.9894 14.78 34.9247 14.672 34.9258 14.5546L34.9266 14.524C34.9269 10.8618 31.9597 7.89464 28.3123 7.89464C28.0514 7.89464 27.7884 7.91105 27.5084 7.94496C27.3619 7.96214 27.2222 7.87511 27.1748 7.73464C26.0853 4.50433 23.0627 2.33417 19.6534 2.33417C15.2764 2.33417 11.7153 5.89511 11.7153 10.2723C11.7153 10.4012 11.7189 10.5292 11.725 10.6564C11.7297 10.7546 11.6878 10.8493 11.6119 10.9121C11.5361 10.9746 11.435 10.9978 11.3395 10.975C10.7269 10.827 10.0998 10.752 9.47594 10.752Z" fill="#3762CC"/>
<path d="M17.8131 15.051H16.9811C16.8073 14.3192 16.5008 13.8131 16.2187 13.3495C15.835 12.719 15.5036 12.1745 15.5036 11.026C15.5036 9.8776 15.835 9.33323 16.2187 8.70276C16.6425 8.00667 17.1228 7.2176 17.1228 5.70588C17.1228 5.34823 16.8328 5.05823 16.4751 5.05823C16.1175 5.05823 15.8275 5.34823 15.8275 5.70588C15.8275 6.85432 15.4961 7.39885 15.1123 8.02932C14.6886 8.72541 14.2083 9.51448 14.2083 11.026C14.2083 12.5378 14.6886 13.3268 15.1123 14.0229C15.3148 14.3554 15.502 14.6649 15.6343 15.0509H15.137C14.899 15.0509 14.7423 15.2753 14.8447 15.4695L16.1826 18.0085C16.2998 18.231 16.6501 18.231 16.7673 18.0085L18.1053 15.4695C18.2078 15.2753 18.0511 15.051 17.8131 15.051Z" fill="#A4C9FF"/>
<path d="M25.4675 15.051H24.6355C24.4617 14.3192 24.1552 13.8131 23.8731 13.3495C23.4894 12.719 23.158 12.1745 23.158 11.026C23.158 9.8776 23.4894 9.33323 23.8731 8.70276C24.2969 8.00667 24.7772 7.2176 24.7772 5.70588C24.7772 5.34823 24.4872 5.05823 24.1295 5.05823C23.7719 5.05823 23.4819 5.34823 23.4819 5.70588C23.4819 6.85432 23.1505 7.39885 22.7667 8.02932C22.343 8.72541 21.8627 9.51448 21.8627 11.026C21.8627 12.5378 22.343 13.3268 22.7667 14.0229C22.9692 14.3554 23.1564 14.6649 23.2888 15.0509H22.7914C22.5535 15.0509 22.3967 15.2753 22.4991 15.4695L23.8372 18.0085C23.9544 18.231 24.3047 18.231 24.4219 18.0085L25.7599 15.4695C25.8622 15.2753 25.7056 15.051 25.4675 15.051Z" fill="#A4C9FF"/>
<path d="M20 37.9785C25.2604 37.9785 29.5247 33.7141 29.5247 28.4538C29.5247 23.1934 25.2604 18.9291 20 18.9291C14.7397 18.9291 10.4753 23.1934 10.4753 28.4538C10.4753 33.7141 14.7397 37.9785 20 37.9785Z" fill="#4C6DAE"/>
<path d="M20 35.3253C23.9562 35.3253 27.1634 32.1181 27.1634 28.1618C27.1634 24.2056 23.9562 20.9984 20 20.9984C16.0437 20.9984 12.8365 24.2056 12.8365 28.1618C12.8365 32.1181 16.0437 35.3253 20 35.3253Z" fill="#F9CFCF"/>
<path d="M16.7768 28.1519C16.7792 27.3922 17.0467 26.6944 17.4901 26.1439L15.2331 22.8208C13.766 24.1314 12.8396 26.0352 12.8367 28.1519H16.7768Z" fill="#6DEE9E"/>
<path d="M27.1631 28.1519C27.1601 26.0352 26.2337 24.1316 24.7667 22.8208L22.5096 26.1439C22.9532 26.6944 23.2206 27.3922 23.2229 28.1519H27.1631Z" fill="#FE6262"/>
<path d="M20 38.291C14.5758 38.291 10.1628 33.878 10.1628 28.4538C10.1628 23.0295 14.5758 18.6166 20 18.6166C25.4242 18.6166 29.8372 23.0295 29.8372 28.4538C29.8372 33.878 25.4242 38.291 20 38.291ZM20 19.2416C14.9203 19.2416 10.7878 23.3741 10.7878 28.4538C10.7878 33.5335 14.9203 37.666 20 37.666C25.0797 37.666 29.2122 33.5335 29.2122 28.4538C29.2122 23.3741 25.0797 19.2416 20 19.2416Z" fill="#3762CC"/>
<path d="M20 24.9384C21.0137 24.9384 21.9184 25.4098 22.5098 26.1438L24.7668 22.8207C23.4995 21.6885 21.8292 20.9985 20.0001 20.9985C18.1711 20.9985 16.5006 21.6885 15.2334 22.8207L17.4904 26.1438C18.0815 25.4098 18.9862 24.9384 20 24.9384Z" fill="#FDE172"/>
<path d="M20 35.6378C15.8778 35.6378 12.524 32.284 12.524 28.1618C12.524 24.0397 15.8778 20.6859 20 20.6859C24.1222 20.6859 27.4759 24.0397 27.4759 28.1618C27.4759 32.284 24.1222 35.6378 20 35.6378ZM20 21.3111C16.2223 21.3111 13.149 24.3844 13.149 28.162C13.149 31.9397 16.2223 35.0129 20 35.0129C23.7776 35.0129 26.8509 31.9397 26.8509 28.162C26.8509 24.3844 23.7776 21.3111 20 21.3111Z" fill="#3762CC"/>
<path d="M27.1632 28.4643H23.2232C23.051 28.4643 22.9111 28.3249 22.9107 28.1528C22.9086 27.4873 22.6858 26.8604 22.2664 26.3398C21.7089 25.6476 20.8829 25.2507 20 25.2507C19.1172 25.2507 18.2911 25.6476 17.7336 26.3398C17.3143 26.8603 17.0916 27.4873 17.0894 28.1528C17.0889 28.3251 16.9491 28.4643 16.7769 28.4643H12.8369C12.7539 28.4643 12.6744 28.4313 12.6158 28.3726C12.5572 28.3138 12.5243 28.2343 12.5244 28.1513C12.5274 26.0328 13.4389 24.0049 15.025 22.5878C16.3977 21.3613 18.1646 20.686 20 20.686C21.8355 20.686 23.6024 21.3613 24.975 22.5878C26.5613 24.0049 27.4727 26.0329 27.4757 28.1513C27.4758 28.2343 27.443 28.3138 27.3843 28.3726C27.3257 28.4313 27.2461 28.4643 27.1632 28.4643ZM23.5207 27.8393H26.843C26.756 26.0126 25.9341 24.2828 24.5585 23.0537C23.3005 21.9299 21.6816 21.311 19.9999 21.311C18.3182 21.311 16.6993 21.9299 15.4413 23.0537C14.0657 24.2828 13.2438 26.0126 13.1568 27.8393H16.4791C16.5432 27.1517 16.8102 26.4895 17.2466 25.9478C17.9235 25.1078 18.9269 24.6259 19.9999 24.6259C21.0729 24.6259 22.0763 25.1078 22.7532 25.9478C23.1897 26.4895 23.4568 27.1517 23.5207 27.8393Z" fill="#3762CC"/>
<path d="M18.8814 28.3333C18.7778 28.8861 19.0584 29.4613 19.5827 29.6647C19.7186 29.7175 19.8655 29.7457 20.017 29.7435C20.5223 29.7364 20.9514 29.4139 21.1163 28.9641C21.1861 28.7735 21.1903 28.5647 21.1519 28.3654L20.17 23.27C20.1338 23.0832 19.8664 23.0832 19.83 23.27L18.8814 28.3333Z" fill="#4C6DAE"/>
</svg>
