<svg width="20" height="37" viewBox="0 0 20 37" fill="none" xmlns="http://www.w3.org/2000/svg">
<path d="M12.4763 21.8613V4.45225C12.4875 3.87165 12.3829 3.29465 12.1684 2.75499C11.954 2.21533 11.6341 1.72385 11.2274 1.30929C10.8208 0.894727 10.3356 0.565412 9.80016 0.340602C9.26474 0.115791 8.68986 0 8.10916 0C7.52845 0 6.95358 0.115791 6.41816 0.340602C5.88273 0.565412 5.39751 0.894727 4.99087 1.30929C4.58423 1.72385 4.26434 2.21533 4.04989 2.75499C3.83545 3.29465 3.73077 3.87165 3.74197 4.45225V21.8592C2.26423 22.8038 1.13252 24.2019 0.516576 25.844C-0.0993731 27.486 -0.166364 29.2836 0.325649 30.9669C0.817661 32.6503 1.84216 34.1288 3.24549 35.1807C4.64883 36.2325 6.35536 36.8011 8.10916 36.8011C9.86296 36.8011 11.5695 36.2325 12.9728 35.1807C14.3762 34.1288 15.4007 32.6503 15.8927 30.9669C16.3847 29.2836 16.3177 27.486 15.7017 25.844C15.0858 24.2019 13.9541 22.8038 12.4763 21.8592V21.8613Z" fill="#D4EBFC"/>
<path d="M12.5608 28.6843C12.5616 29.4941 12.3414 30.2889 11.924 30.983C11.5066 31.677 10.9078 32.2441 10.1921 32.6231C9.47639 33.0022 8.67084 33.1788 7.86218 33.134C7.05353 33.0893 6.2724 32.8248 5.60289 32.369C4.93338 31.9133 4.40086 31.2836 4.06265 30.5477C3.72443 29.8118 3.59335 28.9976 3.68349 28.1927C3.77364 27.3879 4.08161 26.6229 4.57424 25.98C5.06688 25.3372 5.72552 24.8409 6.47926 24.5446V4.83738C6.47926 4.62344 6.5214 4.41161 6.60327 4.21396C6.68513 4.01631 6.80513 3.83673 6.9564 3.68545C7.10767 3.53418 7.28726 3.41419 7.48491 3.33232C7.68256 3.25045 7.89439 3.20831 8.10832 3.20831C8.32226 3.20831 8.53409 3.25045 8.73174 3.33232C8.92939 3.41419 9.10897 3.53418 9.26024 3.68545C9.41152 3.83673 9.53151 4.01631 9.61338 4.21396C9.69525 4.41161 9.73739 4.62344 9.73739 4.83738V24.5446C10.569 24.8717 11.283 25.4414 11.7865 26.1797C12.29 26.9179 12.5598 27.7906 12.5608 28.6843Z" fill="#389FFF"/>
<path d="M9.73743 4.83738V10.2446H6.47931V4.83738C6.47931 4.62344 6.52145 4.41161 6.60331 4.21396C6.68518 4.01631 6.80518 3.83673 6.95645 3.68545C7.10772 3.53418 7.28731 3.41419 7.48496 3.33232C7.6826 3.25045 7.89444 3.20831 8.10837 3.20831C8.3223 3.20831 8.53414 3.25045 8.73179 3.33232C8.92943 3.41419 9.10902 3.53418 9.26029 3.68545C9.41156 3.83673 9.53156 4.01631 9.61343 4.21396C9.6953 4.41161 9.73743 4.62344 9.73743 4.83738Z" fill="#3224FF"/>
<path d="M18.5298 6.31696H15.2656C15.0771 6.31696 14.8962 6.24205 14.7629 6.10873C14.6296 5.9754 14.5547 5.79457 14.5547 5.60602C14.5547 5.41747 14.6296 5.23664 14.7629 5.10331C14.8962 4.96998 15.0771 4.89508 15.2656 4.89508H18.5298C18.7184 4.89508 18.8992 4.96998 19.0326 5.10331C19.1659 5.23664 19.2408 5.41747 19.2408 5.60602C19.2408 5.79457 19.1659 5.9754 19.0326 6.10873C18.8992 6.24205 18.7184 6.31696 18.5298 6.31696Z" fill="#3AC0EF"/>
<path d="M17.3269 10.5493H15.2656C15.0771 10.5493 14.8962 10.4744 14.7629 10.341C14.6296 10.2077 14.5547 10.0269 14.5547 9.83832C14.5547 9.64977 14.6296 9.46894 14.7629 9.33561C14.8962 9.20228 15.0771 9.12738 15.2656 9.12738H17.3269C17.5155 9.12738 17.6963 9.20228 17.8296 9.33561C17.963 9.46894 18.0379 9.64977 18.0379 9.83832C18.0379 10.0269 17.963 10.2077 17.8296 10.341C17.6963 10.4744 17.5155 10.5493 17.3269 10.5493Z" fill="#3AC0EF"/>
<path d="M18.5298 14.7816H15.2656C15.0771 14.7816 14.8962 14.7067 14.7629 14.5733C14.6296 14.44 14.5547 14.2592 14.5547 14.0706C14.5547 13.8821 14.6296 13.7012 14.7629 13.5679C14.8962 13.4346 15.0771 13.3597 15.2656 13.3597H18.5298C18.7184 13.3597 18.8992 13.4346 19.0326 13.5679C19.1659 13.7012 19.2408 13.8821 19.2408 14.0706C19.2408 14.2592 19.1659 14.44 19.0326 14.5733C18.8992 14.7067 18.7184 14.7816 18.5298 14.7816Z" fill="#3AC0EF"/>
<path d="M17.3269 19.0155H15.2656C15.0771 19.0155 14.8962 18.9406 14.7629 18.8073C14.6296 18.6739 14.5547 18.4931 14.5547 18.3046C14.5547 18.116 14.6296 17.9352 14.7629 17.8019C14.8962 17.6685 15.0771 17.5936 15.2656 17.5936H17.3269C17.5155 17.5936 17.6963 17.6685 17.8296 17.8019C17.963 17.9352 18.0379 18.116 18.0379 18.3046C18.0379 18.4931 17.963 18.6739 17.8296 18.8073C17.6963 18.9406 17.5155 19.0155 17.3269 19.0155Z" fill="#3AC0EF"/>
</svg>
