<svg width="42" height="42" viewBox="0 0 12 12" fill="none" xmlns="http://www.w3.org/2000/svg">
<path d="M5.55662 0.264172C2.63687 0.264172 0.263916 2.63712 0.263916 5.55687C0.263916 8.47662 2.63687 10.8491 5.55662 10.8491C5.83318 10.8491 6.37005 10.7867 6.37005 10.7867L6.35076 8.20284L10.1353 8.21054C10.1353 8.21054 10.8493 6.52348 10.8493 5.55686C10.8493 2.63711 8.47636 0.26417 5.55662 0.264172Z" fill="#D2E7FE"/>
<path d="M5.55664 0C2.49114 0 -1.2e-07 2.49114 0 5.55664C1.2e-07 8.62214 2.49114 11.1133 5.55664 11.1133C5.83591 11.1133 6.11452 11.0927 6.39062 11.0508L6.3125 10.5273C6.06269 10.5653 5.80931 10.584 5.55664 10.584C2.77713 10.584 0.529297 8.33615 0.529297 5.55664C0.529297 2.77712 2.77713 0.529296 5.55664 0.529296C8.33616 0.529295 10.584 2.77712 10.584 5.55664C10.584 6.44004 10.3523 7.30746 9.91016 8.07226L10.3672 8.33789C10.8558 7.49261 11.1133 6.533 11.1133 5.55664C11.1133 2.49114 8.62214 -2e-06 5.55664 0Z" fill="#305BB0"/>
<path d="M5.55272 2.64256C5.40654 2.64526 5.29021 2.76592 5.29296 2.9121V5.53905C5.29301 5.6085 5.32037 5.67514 5.36913 5.7246L6.69139 7.06639C6.94009 7.31773 7.31704 6.94468 7.06835 6.69335L5.82225 5.43163V2.91014C5.82395 2.7609 5.70195 2.63978 5.55272 2.64256Z" fill="#305BB0"/>
<path d="M5.53123 0.794922C5.17836 0.811852 5.20375 1.34115 5.55662 1.32422C5.90948 1.32422 5.90948 0.794922 5.55662 0.794922C5.54816 0.794515 5.53968 0.794515 5.53123 0.794922Z" fill="#305BB0"/>
<path d="M5.53123 9.79101C5.17836 9.80794 5.20375 10.3372 5.55662 10.3203C5.90948 10.3203 5.90948 9.79101 5.55662 9.79101C5.54816 9.79061 5.53968 9.79061 5.53123 9.79101Z" fill="#305BB0"/>
<path d="M10.0293 5.29297C9.67641 5.3099 9.7018 5.83919 10.0547 5.82226C10.4075 5.82226 10.4075 5.29297 10.0547 5.29297C10.0462 5.29256 10.0377 5.29256 10.0293 5.29297Z" fill="#305BB0"/>
<path d="M1.03318 5.29297C0.680314 5.3099 0.705705 5.83919 1.05857 5.82226C1.41143 5.82226 1.41143 5.29297 1.05857 5.29297C1.05011 5.29256 1.04164 5.29256 1.03318 5.29297Z" fill="#305BB0"/>
<path d="M8.73828 2.11133C8.38542 2.11133 8.38542 2.64062 8.73828 2.64062C9.09115 2.64062 9.09115 2.11133 8.73828 2.11133Z" fill="#305BB0"/>
<path d="M2.37695 8.47266C2.02409 8.47266 2.02409 9.00195 2.37695 9.00195C2.72982 9.00195 2.72982 8.47266 2.37695 8.47266Z" fill="#305BB0"/>
<path d="M2.37695 2.11133C2.02409 2.11133 2.02409 2.64062 2.37695 2.64062C2.72982 2.64062 2.72982 2.11133 2.37695 2.11133Z" fill="#305BB0"/>
<path d="M6.35156 7.9375C6.20463 7.93694 6.08537 8.05619 6.08594 8.20313V11.6426C6.08646 11.7888 6.20539 11.9068 6.35156 11.9063H10.584C10.7302 11.9068 10.8491 11.7888 10.8496 11.6426V8.20313C10.8502 8.05619 10.7309 7.93694 10.584 7.9375H6.35156ZM6.61524 8.4668H10.3203V11.377H6.61524V8.4668Z" fill="#305BB0"/>
<path d="M7.64256 7.40626C7.5072 7.42181 7.40577 7.53761 7.40818 7.67384V8.73243C7.40818 9.0853 7.93748 9.0853 7.93748 8.73243V7.67384C7.94033 7.51381 7.80156 7.3879 7.64256 7.40626Z" fill="#305BB0"/>
<path d="M9.23045 7.40626C9.09509 7.42181 8.99366 7.53761 8.99608 7.67384V8.73243C8.99608 9.0853 9.52537 9.0853 9.52537 8.73243V7.67384C9.52827 7.51381 9.38945 7.3879 9.23045 7.40626Z" fill="#305BB0"/>
<path d="M6.35156 9.26172V9.79101H10.584V9.26172H6.35156Z" fill="#305BB0"/>
</svg>
